HIERARCHY
ROOT Hips
{
     OFFSET 21.34530 92.35080 -19.52420
     CHANNELS 6 Xposition Yposition Zposition Zrotation Xrotation Yrotation
     JOINT Spine
     {
          OFFSET 0.00000 11.89050 0.00000
          CHANNELS 3 Zrotation Xrotation Yrotation
          JOINT Spine1
          {
               OFFSET 0.00000 25.65740 0.12766
               CHANNELS 3 Zrotation Xrotation Yrotation
               JOINT HEad
               {
                    OFFSET -0.00000 8.73416 0.01134
                    CHANNELS 3 Zrotation Xrotation Yrotation
                    End Site
                    {
                         OFFSET -0.29000 12.77420 2.51395
                    }
               }
               JOINT LeftShoulder1
               {
                    OFFSET 8.99000 -0.36225 -0.22000
                    CHANNELS 3 Zrotation Xrotation Yrotation
                    JOINT LeftArm
                    {
                         OFFSET 10.28270 -0.00338 0.32212
                         CHANNELS 3 Zrotation Xrotation Yrotation
                         JOINT LeftForeArm
                         {
                              OFFSET 32.76690 0.09914 -1.42434
                              CHANNELS 3 Zrotation Xrotation Yrotation
                              JOINT LeftHand
                              {
                                   OFFSET 27.56430 0.08536 1.02216
                                   CHANNELS 3 Zrotation Xrotation Yrotation
                                   End Site
                                   {
                                        OFFSET 16.74430 -0.60000 1.50291
                                   }
                              }
                         }
                    }
               }
               JOINT RightShoulder
               {
                    OFFSET -8.99000 -0.36225 -0.22000
                    CHANNELS 3 Zrotation Xrotation Yrotation
                    JOINT RightArm
                    {
                         OFFSET -10.28270 -0.00338 0.32212
                         CHANNELS 3 Zrotation Xrotation Yrotation
                         JOINT RightForeArm
                         {
                              OFFSET -32.89710 0.09914 -1.42434
                              CHANNELS 3 Zrotation Xrotation Yrotation
                              JOINT RightHand
                              {
                                   OFFSET -27.49210 0.08536 1.02216
                                   CHANNELS 3 Zrotation Xrotation Yrotation
                                   End Site
                                   {
                                        OFFSET -16.63120 -0.60000 1.50291
                                   }
                              }
                         }
                    }
               }
          }
     }
     JOINT LeftUpLeg
     {
          OFFSET 8.94580 -8.66707 0.10165
          CHANNELS 3 Zrotation Xrotation Yrotation
          JOINT LeftLeg
          {
               OFFSET 0.00000 -44.42270 1.37270
               CHANNELS 3 Zrotation Xrotation Yrotation
               JOINT LeftFoot
               {
                    OFFSET -0.25355 -42.09240 -1.46059
                    CHANNELS 3 Zrotation Xrotation Yrotation
                    JOINT LeftToes
                    {
                         OFFSET -0.04000 -4.41509 8.49910
                         CHANNELS 3 Zrotation Xrotation Yrotation
                         End Site
                         {
                              OFFSET 0.08000 -0.04745 9.77979
                         }
                    }
               }
          }
     }
     JOINT RightUpLeg
     {
          OFFSET -8.94580 -8.66707 0.10165
          CHANNELS 3 Zrotation Xrotation Yrotation
          JOINT RightLeg
          {
               OFFSET 0.00000 -44.42270 1.37270
               CHANNELS 3 Zrotation Xrotation Yrotation
               JOINT RightFoot
               {
                    OFFSET 0.25355 -42.09240 -1.46059
                    CHANNELS 3 Zrotation Xrotation Yrotation
                    JOINT RightToes
                    {
                         OFFSET 0.04000 -4.41509 8.49910
                         CHANNELS 3 Zrotation Xrotation Yrotation
                         End Site
                         {
                              OFFSET -0.08000 -0.13745 9.77979
                         }
                    }
               }
          }
     }
}
MOTION
Frames: 19
Frame Time: 0.01667
17.81380 96.39670 -33.28920 -7.03921 -50.03810 -54.83610 -21.85440 18.15430 1.96937 -17.61710 29.99920 7.11129 -21.87880 3.55347 8.77982 -0.00000 0.00000 -0.00000 -43.57590 -24.46550 -37.27070 -1.52185 -36.73040 -57.98370 2.71057 9.51234 -17.88290 3.08733 0.90183 8.98664 66.08580 27.21030 81.07130 -8.26953 28.33720 90.82490 18.95380 12.15660 8.86829 46.95530 -39.81240 67.69700 69.71340 70.71300 -42.85560 -63.78260 5.43805 8.04005 0.00000 0.00000 -0.00000 -49.99950 13.56460 29.21190 39.60450 11.14220 -37.44880 -32.94350 -1.79005 1.61077 3.36881 -25.72810 13.41530 
17.32550 95.61110 -32.56430 -8.88735 -51.44180 -56.08590 -21.76740 18.83050 1.18566 -18.48360 29.89460 7.90411 -22.38800 5.48787 9.06040 -0.00000 0.00000 -0.00000 -44.49910 -21.01280 -31.60570 -0.90933 -41.57070 -56.47820 1.72309 9.69633 -18.67060 4.20738 1.05832 9.60577 65.64810 28.11830 78.79550 -8.01134 28.68220 91.14510 18.94390 12.12140 8.67038 53.71410 -36.15380 54.64430 -12.02910 71.26550 31.39610 -41.42780 6.82603 5.38927 0.00000 0.00000 -0.00000 -50.06060 13.72320 29.21510 39.83030 15.56080 -38.64980 -31.83200 -4.07452 0.88132 3.45243 -26.02580 13.62070 
16.83510 95.05640 -29.79920 -12.32340 -50.99250 -59.65980 -15.88960 17.54250 0.19461 -17.29760 28.92330 8.08002 -22.89500 7.45803 9.37184 -0.00000 0.00000 -0.00000 -46.55050 -19.19260 -26.40750 -1.48467 -44.13160 -56.60170 1.46389 9.74459 -19.22710 5.34788 1.20801 9.98947 65.34860 28.96610 76.26820 -7.71179 28.95770 91.43470 18.83230 12.08260 8.51817 61.19430 -28.84120 32.76960 -46.33650 40.69320 66.76460 -20.06510 11.54450 3.29370 0.00000 -0.00000 0.00000 -49.93380 13.90570 29.18690 40.20360 19.34790 -37.84850 -30.62810 -6.15737 0.25327 3.58016 -26.43690 14.00560 
16.29120 95.18160 -25.80930 -15.77170 -49.91210 -64.55330 -8.16185 14.94790 0.13347 -14.99850 27.40000 7.94412 -23.36090 9.23546 9.49482 -0.00000 0.00000 -0.00000 -49.10230 -18.59360 -21.66820 -2.75055 -44.91950 -57.79080 1.49873 9.73529 -19.53730 6.13586 1.29024 9.99160 65.30140 29.85930 73.66130 -6.84087 29.16940 91.30550 18.62940 12.05080 8.46618 67.42640 -24.92890 14.46860 -47.36990 19.06670 69.48670 -21.49780 0.63415 1.55416 0.00000 0.00000 -0.00000 -51.12880 14.32030 30.28590 39.98250 20.59550 -35.16960 -29.58770 -7.13502 -0.02835 3.70502 -26.76540 14.51070 
15.83460 95.88870 -20.90150 -18.46970 -49.39180 -69.56700 -1.21967 12.39520 0.90490 -12.31190 25.72920 7.77867 -23.72370 10.67820 9.37237 -0.00000 0.00000 -0.00000 -51.78440 -18.79340 -17.39190 -4.15315 -44.42150 -59.39710 1.32817 9.77066 -19.56220 6.27505 1.26480 9.59031 65.51970 30.84230 71.17200 -5.16990 29.28940 90.65420 18.47150 12.03590 8.48327 73.37590 -27.16890 4.84585 -46.63390 17.75650 70.83540 -29.85910 -12.38200 -1.21734 0.00000 0.00000 -0.00000 -54.58510 14.96370 33.07110 39.03200 19.21160 -31.62890 -28.06410 -6.99002 0.00166 3.80570 -26.92750 15.12170 
15.52880 96.87820 -15.38500 -20.62460 -50.67360 -74.43610 2.90370 10.79300 2.18822 -10.28360 24.42160 7.72764 -23.85380 11.74810 9.04989 -0.00000 0.00000 -0.00000 -54.35300 -19.41870 -13.58920 -5.36524 -43.16720 -60.99310 0.64655 9.91245 -19.31870 5.80564 1.15392 8.92221 65.82690 31.84080 68.98590 -2.98097 29.27100 89.77820 18.55950 12.04490 8.47778 76.25000 -30.91140 0.31821 -48.65770 25.53640 72.17590 -39.82140 -22.60840 -5.45398 -0.00000 0.00000 0.00000 -61.37670 15.86600 37.87430 37.57010 15.07420 -28.01620 -25.87310 -5.68764 0.29798 3.91961 -27.09270 15.82950 
15.18440 97.08900 -14.41110 -21.61760 -51.01050 -76.06810 2.89334 10.62270 2.30589 -9.40681 23.86630 7.72817 -23.54320 12.45290 8.54282 -0.00000 0.00000 -0.00000 -56.55760 -20.12320 -10.37270 -6.32853 -41.70400 -62.36850 -0.48170 10.14090 -18.95020 5.17525 1.03332 8.24145 65.92460 32.65850 67.20320 -0.97457 29.11530 89.22010 18.98780 12.07330 8.36145 77.84590 -29.69800 -2.00803 -48.08890 23.26350 68.32920 -40.14570 -25.13010 -6.46809 0.00000 -0.00000 0.00000 -62.53460 16.21870 39.08020 37.04710 14.20490 -28.04180 -25.95690 -5.53811 0.33517 4.09322 -27.50300 16.50100 
14.79260 96.43810 -16.38480 -22.04550 -50.57220 -75.50360 1.04553 10.97940 1.48947 -9.26117 23.70920 7.58948 -22.66250 12.86160 7.79795 -0.00000 0.00000 -0.00000 -58.16080 -20.52600 -8.02415 -7.00416 -40.52120 -63.32040 -1.68937 10.37950 -18.67230 4.97171 0.97321 7.76143 65.62260 33.08710 65.77000 0.19262 28.88610 89.36180 19.63570 12.10470 8.12964 78.60730 -26.11130 -1.48757 -47.21270 16.34570 64.77070 -27.93630 -17.65090 -2.44794 -0.00000 -0.00000 0.00000 -59.16070 15.97980 37.34600 37.58350 17.64450 -30.81750 -27.44350 -7.27468 -0.07427 4.29499 -28.13220 16.88160 
14.48690 95.45170 -19.55780 -22.01050 -50.39950 -73.70430 -1.81722 11.59800 0.35239 -9.65411 23.73150 7.30361 -21.37440 13.10320 6.82988 -0.00000 0.00000 -0.00000 -59.08690 -20.30050 -6.88179 -7.21576 -39.93650 -63.62260 -2.58397 10.55760 -18.64230 5.47690 0.99337 7.51829 65.02110 33.04580 64.51970 0.41803 28.64770 90.08730 20.21500 12.12080 7.86864 76.87170 -22.13590 1.50136 -47.15630 10.54780 65.58240 -13.11190 -2.81945 0.55907 -0.00000 -0.00000 0.00000 -54.97340 15.84940 34.72610 38.56830 21.46850 -34.60550 -29.53810 -9.22813 -0.60093 4.43052 -28.68820 16.83250 
14.37260 94.87890 -21.41730 -21.53670 -51.24830 -72.01850 -4.77276 12.08880 -0.15854 -9.95538 23.65890 6.92257 -20.09290 13.26080 5.87927 -0.00000 0.00000 -0.00000 -59.43530 -19.42670 -7.08732 -6.78496 -39.92560 -63.20290 -2.98742 10.64510 -18.85080 6.51722 1.06950 7.42585 64.41590 32.59360 63.31780 0.22287 28.45440 90.85960 20.41220 12.10430 7.66400 72.69010 -22.30570 8.33359 -48.44190 17.84110 70.17470 -6.61670 8.16662 0.84685 0.00000 0.00000 0.00000 -53.57340 16.05740 33.75220 39.17160 22.96510 -37.46960 -30.70220 -10.26400 -0.91413 4.46989 -29.01070 16.49340 
14.32890 94.59490 -23.42020 -20.07540 -52.34620 -69.37200 -9.24701 12.82940 -0.30714 -10.52370 23.66280 6.57168 -19.17370 13.30250 5.32045 -0.00000 0.00000 -0.00000 -59.34290 -18.29110 -8.45407 -5.80858 -40.06630 -62.33170 -2.93477 10.64320 -19.11810 7.75253 1.17021 7.42575 64.01270 31.82890 62.15880 0.26658 28.35630 91.18290 20.08790 12.04800 7.54372 67.72990 -24.93480 18.52930 -49.42990 32.40560 73.01040 -4.08239 14.53290 0.68436 0.00000 0.00000 -0.00000 -52.67260 16.46990 33.14890 39.50890 23.01460 -40.25430 -31.61850 -10.60860 -1.03854 4.49816 -29.29790 16.15190 
14.42730 94.60160 -25.27370 -18.03310 -53.19490 -66.53830 -13.37530 13.42740 -0.10838 -10.84390 23.64130 6.25741 -18.67830 13.14440 5.36626 -0.00000 0.00000 -0.00000 -58.91720 -17.51210 -10.56280 -4.80480 -39.73340 -61.65770 -2.51900 10.56210 -19.24650 8.97131 1.28444 7.54447 63.77620 30.82450 61.14810 0.78570 28.33030 91.01290 19.43670 11.97180 7.49883 61.39900 -28.83600 31.30680 -44.16540 51.15420 66.44680 -5.42127 15.95080 1.00105 0.00000 -0.00000 0.00000 -52.17500 16.68800 32.88580 39.64850 21.88710 -42.40610 -32.37250 -10.15690 -0.92342 4.59645 -29.78280 15.98380 
14.71180 94.80390 -26.41610 -16.17430 -53.20460 -64.39220 -15.18130 13.55340 0.23304 -10.50700 23.55770 5.95837 -18.43130 12.75250 5.90945 -0.00000 0.00000 -0.00000 -58.26650 -17.68820 -12.94830 -4.47851 -38.32770 -61.94660 -1.75628 10.40370 -19.15930 10.09290 1.41300 7.81083 63.55080 29.65560 60.42260 1.48224 28.28280 90.75030 18.89430 11.91330 7.48828 55.15900 -33.83330 43.39340 -25.11030 69.97980 43.66150 -13.26680 11.55830 2.13872 0.00000 0.00000 -0.00000 -51.87260 16.51330 32.73960 39.81950 20.20280 -43.44650 -32.94900 -9.19735 -0.64257 4.73846 -30.37150 15.95380 
15.09870 95.02610 -26.93950 -14.91370 -52.27100 -63.07570 -14.90090 13.34490 0.56098 -9.65158 23.49060 5.67498 -18.20970 12.17510 6.65347 -0.00000 0.00000 -0.00000 -57.50810 -19.20830 -15.25670 -5.21460 -35.34840 -63.60000 -0.54291 10.15240 -18.87420 11.05120 1.54372 8.15433 63.25150 28.44610 60.06320 1.88187 28.14350 90.86490 18.78670 11.89770 7.46215 49.77470 -38.11400 53.12080 38.58320 78.17110 -22.14230 -26.66090 4.39143 2.80413 -0.00000 0.00000 0.00000 -51.28950 16.02580 32.32930 40.19240 18.60460 -43.65450 -33.42390 -8.19419 -0.33768 4.85316 -30.81830 15.97760 
15.50120 95.16870 -27.03980 -14.33870 -50.55280 -62.44770 -13.33050 12.97480 0.85936 -8.51574 23.48600 5.41424 -17.85620 11.51900 7.34050 -0.00000 0.00000 -0.00000 -56.73420 -22.17890 -17.31440 -6.80577 -30.43560 -66.38840 1.26968 9.78838 -18.42150 11.78360 1.65115 8.43979 62.92340 27.31800 60.03070 1.79801 27.90220 91.51180 19.10520 11.92200 7.41147 45.08830 -41.24950 61.41260 85.92010 68.68600 -67.12410 -45.65020 -2.07347 2.34794 -0.00000 0.00000 0.00000 -50.20410 15.39000 31.53710 40.76740 17.36290 -43.44130 -33.82700 -7.36785 -0.08017 4.93612 -31.07890 16.09840 
15.91060 95.21480 -26.99410 -14.16610 -48.42320 -62.01720 -11.41200 12.68870 1.08083 -7.36863 23.59910 5.17094 -17.30540 10.90380 7.85523 -0.00000 0.00000 -0.00000 -56.00500 -26.49780 -19.11470 -8.73739 -23.50580 -69.71420 3.71656 9.31964 -17.80630 12.26490 1.71665 8.58011 62.71520 26.29880 60.17610 1.44801 27.59640 92.48430 19.61520 11.96310 7.34484 41.06090 -43.03610 67.50190 98.21740 58.37840 -73.89460 -61.97440 -3.05913 2.76465 -0.00000 0.00000 -0.00000 -48.70150 14.78630 30.43970 41.43490 16.40010 -43.24680 -34.16570 -6.65119 0.14786 5.03178 -31.28340 16.39340 
16.30170 95.21590 -27.06630 -14.04150 -46.34750 -61.32860 -9.99061 12.62560 1.22317 -6.46061 23.86630 4.89879 -16.56650 10.40330 8.19727 -0.00000 0.00000 -0.00000 -55.39990 -31.96510 -20.78350 -10.68240 -14.85240 -73.06770 6.62662 8.79798 -17.03140 12.51220 1.73835 8.57191 62.79250 25.32310 60.34270 1.14902 27.29250 93.48350 20.06810 11.99190 7.24569 37.40030 -43.99370 71.30890 103.24000 51.52030 -73.81780 -71.10360 -0.87224 4.82504 -0.00000 -0.00000 -0.00000 -47.09010 14.42640 29.18530 42.04050 15.43370 -43.24470 -34.52660 -5.92302 0.38428 5.13039 -31.45090 16.76190 
16.62940 95.22920 -27.33900 -13.78460 -44.56950 -60.20900 -9.33399 12.75060 1.31259 -5.87876 24.25740 4.53780 -15.69700 10.04030 8.42281 -0.00000 0.00000 -0.00000 -55.07150 -38.32090 -22.54150 -12.66180 -5.06405 -76.13880 9.67967 8.29474 -16.18000 12.60530 1.73271 8.48030 63.19990 24.28300 60.44900 0.98762 27.03780 94.37940 20.29770 11.99070 7.11117 33.92670 -44.36690 72.91510 105.62900 47.93240 -73.01560 -74.59000 1.77434 7.11630 0.00000 0.00000 0.00000 -45.58610 14.45060 27.86310 42.48340 14.25230 -43.30750 -35.04060 -5.20682 0.62520 5.15622 -31.43230 16.96390 
16.87350 95.28920 -27.76820 -13.33530 -43.03810 -58.66440 -9.32640 12.97580 1.37017 -5.56626 24.68930 4.07547 -14.78090 9.82068 8.60010 -0.00000 0.00000 -0.00000 -55.28020 -45.25870 -24.69360 -14.88000 5.19244 -78.65520 12.54010 7.85647 -15.44200 12.67670 1.72898 8.41446 63.85120 23.05940 60.48610 0.80837 26.83620 95.21820 20.23200 11.96360 6.99935 30.71410 -44.26290 72.54090 106.44600 47.02900 -72.80430 -74.40690 3.87858 8.65167 -0.00000 0.00000 -0.00000 -44.17880 14.83590 26.50790 42.74000 12.75180 -43.27400 -35.77280 -4.56008 0.85670 5.07117 -31.15350 16.88120 
